@startuml
'https://plantuml.com/class-diagram

abstract class Element{
    changeEvironment()
}
abstract class ExpandingElement{
                                   changeEvironment()
                               }
abstract class ContagiousElement{
                                    changeEvironment()
                                }

Element <|-- ExpandingElement
Element <|-- ContagiousElement

class Sand

ExpandingElement <|-- Sand


'abstract class AbstractList
'abstract AbstractCollection
'interface List
'interface Collection
'
'List <|-- AbstractList
'Collection <|-- AbstractCollection
'
'Collection <|- List
'AbstractCollection <|- AbstractList
'AbstractList <|-- ArrayList
'
'class ArrayList {
'Object[] elementData
'size()
'}
'
'enum TimeUnit {
'DAYS
'HOURS
'MINUTES
'}

@enduml